<?xml version="1.0" encoding="UTF-8"?>
<!-- Created with EazyDraw for Mac ( http://www.eazydraw.com/ ) -->

<svg
    version="1.1"
    xmlns:dc="http://purl.org/dc/elements/1.1/"
    xmlns:cc="http://creativecommons.org/ns#"
    xmlns:rdf="http://www.w3.org/1999/02/22-rdf-syntax-ns#"
    xmlns:svg="http://www.w3.org/2000/svg"
    xmlns:xlink="http://www.w3.org/1999/xlink"
    xmlns="http://www.w3.org/2000/svg"
    width="445.090565323"
    height="353.51280111"
    viewBox="0, 0, 445.090565323, 353.51280111"
    preserveAspectRatio="none"
    id="svg2">
   <defs
       id="defs_B72E1B52"/>
   <metadata
       id="metadata7">
      <rdf:RDF>
         <cc:Work
             rdf:about="">
            <dc:format>image/svg+xml</dc:format>
            <dc:type rdf:resource="http://purl.org/dc/dcmitype/StillImage"/>
            <dc:title></dc:title>
         </cc:Work>
      </rdf:RDF>
   </metadata>
   <g
       id="layer_Paper"
       style="fill:#000000;fill-opacity:1;stroke:#000000;stroke-opacity:1;fill-rule:nonzero;stroke-linecap:square;stroke-linejoin:miter;stroke-width:3;stroke-miterlimit:10">
      <rect
          style="fill:#2DBB7D;stroke:#202020;stroke-width:1"
          id="7ACF32E2"
          x="0.5"
          y="59.5542670367"
          width="99.4585340733"
          height="99.4585340733"/>
      <rect
          style="fill:#B97F0C;stroke:#202020;stroke-width:1"
          id="AC48CFD2"
          x="10.61953125"
          y="253.554267037"
          width="99.4585340733"
          height="99.4585340733"/>
      <rect
          style="fill:#2DBB7D;stroke:#202020;stroke-width:1"
          id="10AB7AE1"
          x="224.29453125"
          y="0.5"
          width="99.4585340733"
          height="99.4585340733"/>
      <rect
          style="fill:#B9830A;stroke:#202020;stroke-width:1"
          id="B9711222"
          x="239.29453125"
          y="198.095732963"
          width="53.4585340733"
          height="55.4585340733"/>
      <rect
          style="fill:#C59322;stroke:#202020;stroke-width:1"
          id="D1BCDE22"
          x="375.13203125"
          y="220.095732963"
          width="53.4585340733"
          height="55.4585340733"/>
      <rect
          style="fill:#2DBB7D;stroke:#202020;stroke-width:1"
          id="592EA332"
          x="345.13203125"
          y="0.5"
          width="99.4585340733"
          height="99.4585340733"/>
   </g>
   <g
       id="layer_first"
       style="fill:#000000;fill-opacity:1;stroke:#000000;stroke-opacity:1;fill-rule:nonzero;stroke-linecap:square;stroke-linejoin:miter;stroke-width:3;stroke-miterlimit:10">
      <g
          id="78302B42"
          transform="matrix(-0.008834571725,-0.99996097441,0.99996097441,-0.008834571725,-163.858013418,252.669529151)">
         <path
             style="fill:#DB7B59;stroke:#FB9B38;stroke-width:1.195285047094"
             id="68302B42"
             d="M75.593247055,212.898777985 C72.059372326,211.407322705 56.233482871,211.419020379 37.711303891,211.322092739 C37.626476266,213.211572707 37.54164864,215.101052675 37.456821015,216.990532643 C27.477834556,213.7884389 17.498848098,210.586345157 9.424903732,206.662846334
C17.781606851,204.288078597 28.043352061,201.19190578 38.305097271,198.095732963 C38.220269645,199.985212931 38.135442019,201.874692899 38.050614394,203.764172867 C56.572793373,203.861100508 75.094972352,203.958028148 77.164158768,203.899527807
C77.124699072,207.30059443 77.202347576,208.072177223 76.927533013,208.982517036"/>
      </g>
   </g>
   <g
       id="layer_second"
       style="fill:#000000;fill-opacity:1;stroke:#000000;stroke-opacity:1;fill-rule:nonzero;stroke-linecap:square;stroke-linejoin:miter;stroke-width:3;stroke-miterlimit:10">
      <g
          id="240AE252">
         <path
             style="fill:#DB7B59;stroke:#FB9B38;stroke-width:1.195285047094"
             id="140AE252"
             d="M180.158779624,303.722538184 C189.179639721,303.844932556 223.620616679,295.119816111 264.027866665,285.061493786 C262.530168758,282.396108205 261.032470851,279.730722623 259.534772943,277.065337042 C284.109124258,276.011861981 308.68347557,274.958386921 329.753065323,275.953070529
C313.675801925,283.843005525 294.093776968,293.781099192 274.51175201,303.719192856 C273.014054103,301.053807275 271.516356198,298.388421694 270.018658291,295.723036112 C229.611408307,305.781358435 189.204158324,315.83968076 184.751832296,317.059421167
C181.809483128,312.324033299 180.953446485,311.297395605 180.741140222,309.884490463"/>
      </g>
      <g
          id="C526C252">
         <path
             style="fill:#DB7B59;stroke:#FB9B38;stroke-width:1.195285047094"
             id="8526C252"
             d="M157.207068953,272.335768658 C161.039134999,272.503038727 175.870059605,266.980123809 193.26628641,260.619950691 C192.687721725,258.819230507 192.10915704,257.018510323 191.530592355,255.217790139 C202.000021682,254.743844308 212.469451008,254.269898478 221.404372676,255.135690274
C214.397999957,260.272299092 205.85711958,266.748645535 197.316239203,273.224991979 C196.737674518,271.424271795 196.159109834,269.623551611 195.580545149,267.822831427 C178.184318345,274.183004544 160.788091541,280.543177662 158.868835941,281.31868566
C157.721278104,278.11682335 157.379759165,277.420594859 157.320307623,276.471538942"/>
      </g>
   </g>
   <g
       id="layer_third"
       style="fill:#000000;fill-opacity:1;stroke:#000000;stroke-opacity:1;fill-rule:nonzero;stroke-linecap:square;stroke-linejoin:miter;stroke-width:3;stroke-miterlimit:10">
      <g
          id="CD5DA952"
          transform="matrix(0.346206535569,-0.938158320716,0.938158320716,0.346206535569,109.250413908,475.121075726)">
         <path
             style="fill:#DB7B59;stroke:#FB9B38;stroke-width:1.195285047094"
             id="BD5DA952"
             d="M363.413100149,163.525738342 C367.245166195,163.69300841 382.076090801,158.170093492 399.472317606,151.809920374 C398.893752921,150.00920019 398.315188236,148.208480006 397.736623551,146.407759822 C408.206052878,145.933813992 418.675482204,145.459868162 427.610403872,146.325659958
C420.604031153,151.462268775 412.063150776,157.938615219 403.522270399,164.414961662 C402.943705714,162.614241478 402.36514103,160.813521294 401.786576345,159.01280111 C384.390349541,165.372974227 366.994122737,171.733147345 365.074867137,172.508655343
C363.9273093,169.306793033 363.585790361,168.610564542 363.526338819,167.661508626"/>
      </g>
      <g
          id="98D4D852"
          transform="matrix(0.346206535569,-0.938158320716,0.938158320716,0.346206535569,27.8662042015,347.53480793)">
         <path
             style="fill:#DB7B59;stroke:#FB9B38;stroke-width:1.195285047094"
             id="88D4D852"
             d="M231.18129258,158.12357779 C235.013358626,158.290847858 249.844283232,152.76793294 267.240510037,146.407759822 C266.661945352,144.607039638 266.083380667,142.806319454 265.504815982,141.00559927 C275.974245309,140.53165344 286.443674635,140.05770761 295.378596303,140.923499406
C288.372223584,146.060108223 279.831343207,152.536454667 271.29046283,159.01280111 C270.711898145,157.212080926 270.133333461,155.411360742 269.554768776,153.610640558 C252.158541972,159.970813675 234.762315168,166.330986793 232.843059568,167.106494791
C231.695501731,163.904632481 231.353982792,163.20840399 231.29453125,162.259348074"/>
      </g>
   </g>
</svg>
