<?xml version="1.0" encoding="UTF-8"?>
<!-- Created with EazyDraw for Mac ( http://www.eazydraw.com/ ) -->

<svg
    version="1.1"
    xmlns:dc="http://purl.org/dc/elements/1.1/"
    xmlns:cc="http://creativecommons.org/ns#"
    xmlns:rdf="http://www.w3.org/1999/02/22-rdf-syntax-ns#"
    xmlns:svg="http://www.w3.org/2000/svg"
    xmlns:xlink="http://www.w3.org/1999/xlink"
    xmlns="http://www.w3.org/2000/svg"
    width="335.19296875"
    height="455.664565469"
    viewBox="0, 0, 335.19296875, 455.664565469"
    preserveAspectRatio="none"
    id="svg2">
   <defs
       id="defs_8F6A85B7"/>
   <metadata
       id="metadata7">
      <rdf:RDF>
         <cc:Work
             rdf:about="">
            <dc:format>image/svg+xml</dc:format>
            <dc:type rdf:resource="http://purl.org/dc/dcmitype/StillImage"/>
            <dc:title></dc:title>
         </cc:Work>
      </rdf:RDF>
   </metadata>
   <g
       id="layer_Paper"
       style="fill:#000000;fill-opacity:1;stroke:#000000;stroke-opacity:1;fill-rule:nonzero;stroke-linecap:square;stroke-linejoin:miter;stroke-width:3;stroke-miterlimit:10"/>
   <g
       id="layer_First"
       style="fill:#000000;fill-opacity:1;stroke:#000000;stroke-opacity:1;fill-rule:nonzero;stroke-linecap:square;stroke-linejoin:miter;stroke-width:3;stroke-miterlimit:10">
      <rect
          style="fill:#8ECF7D;stroke:#8ECF7D"
          id="00C80D17"
          x="1.5"
          y="226.674243352"
          width="114.633412858"
          height="114.633412858"/>
      <g id="5CF57D47_transform" transform="matrix(-0.141426035157,-0.432501063658,0.387364974602,-0.060026658612,-98.4635081221,451.08975302)">
         <path
             style="fill:#D06647;stroke:#FB9B38"
             id="4CF57D47"
             d="M-37.5138267788,351.620134606 C-15.7351878998,377.7320048 54.8258838772,403.812596832 97.4086808092,420.885077953 C99.1965155372,416.425796222 100.984350265,411.966514491 102.772184993,407.50723276 C123.059349492,424.267631859 143.34651399,441.028030959 158.637557981,457.788430058
C137.387064897,455.892303395 111.140451305,453.996176733 84.8938377132,452.10005007 C86.6816724412,447.640768339 88.4695071692,443.181486608 90.2573418972,438.722204877 C47.6745449652,421.649723756 5.091748033203,399.404616447 -56.4763068288,390.061751328
C-51.1338870788,374.552744052 -47.7118511478,366.605232653 -45.3280715108,362.661326103"/>
      </g>
      <text
          id="85DFC477"
          style="stroke:none"
          font-family="Helvetica"
          font-size="18"
          font-weight="normal"
          font-style="normal">
         <tspan x="6.13671875" y="287.221118352">API Gateway</tspan>
      </text>
   </g>
   <g
       id="layer_Second"
       style="fill:#000000;fill-opacity:1;stroke:#000000;stroke-opacity:1;fill-rule:nonzero;stroke-linecap:square;stroke-linejoin:miter;stroke-width:3;stroke-miterlimit:10">
      <g
          id="5376DE17_annotation">
         <path
             style="fill:#EBFFED"
             id="5376DE17"
             d="M140.621289063,17.3705441333 C111.927304687,19.3359581958 142.237851562,55.1345714771 123.849453125,65.6635753833 C105.461054687,76.3329660083 98.9948046875,99.6371613208 111.927304687,104.971856633 C155.372421875,123.36251679 142.237851562,129.960692571 168.911132812,135.576161321
C214.983164063,145.122458196 192.755429687,124.906770696 218.01421875,121.11632929 C247.920625,116.62395429 252.164101563,124.204837102 276.008398437,119.150915227 C302.479609375,113.395059758 305.30859375,85.8792628833 305.30859375,67.9097628833
C305.30859375,58.2230792896 298.236132813,50.5018097583 282.67671875,39.2708722583 C271.764921875,31.1284425708 300.256835938,17.9320910083 273.583554687,4.03380585206 C251.15375,-7.47790508544 227.107382812,23.9687199146 201.242382813,23.9687199146
C175.377382813,23.9687199146 169.113203125,16.1070636646 140.621289063,17.3705441333 z"/>
         <text
             id="5376DE17_annotation_text"
             style="stroke:none"
             font-family="Helvetica"
             font-size="18"
             font-weight="normal"
             font-style="normal">
            <tspan x="167.777738429" y="67.0884892261">Service </tspan>
            <tspan x="167.777738429" y="89.0884892261">Discovery</tspan>
         </text>
      </g>
      <g id="78613F47_transform" transform="matrix(0.036262913979,-0.470697463565,0.359443345332,0.064466779543,30.5589762986,193.418569079)">
         <path
             style="fill:#D06647;stroke:#FB9B38"
             id="68613F47"
             d="M3.030704471203,107.563103356 C24.8093433502,133.67497355 95.3704151272,159.755565582 137.953212059,176.828046703 C139.741046787,172.368764972 141.528881515,167.909483241 143.316716243,163.45020151 C163.603880742,180.210600609 183.89104524,196.970999709 199.182089231,213.731398808
C177.931596147,211.835272145 151.684982555,209.939145483 125.438368963,208.04301882 C127.226203691,203.583737089 129.014038419,199.124455358 130.801873147,194.665173627 C88.2190762152,177.592692506 45.6362792832,155.347585197 -15.9317755788,146.004720078
C-10.5893558288,130.495712802 -7.167319897797,122.548201403 -4.783540260797,118.604294853"/>
      </g>
      <g id="F6BCAF47_transform" transform="matrix(-0.013617760023,0.454832991435,-0.384768235679,-0.074888103895,202.062184349,129.960823771)">
         <path
             style="fill:#D06647;stroke:#FB9B38"
             id="E6BCAF47"
             d="M43.6201368097,123.76810339 C65.3987756887,149.879973584 135.959847466,175.960565616 178.542644397,193.033046737 C180.330479125,188.573765006 182.118313853,184.114483275 183.906148581,179.655201544 C204.19331308,196.415600643 224.480477578,213.175999743 239.771521569,229.936398842
C218.521028485,228.040272179 192.274414893,226.144145517 166.027801301,224.248018854 C167.815636029,219.788737123 169.603470757,215.329455392 171.391305485,210.870173661 C128.808508554,193.79769254 86.2257116217,171.552585231 24.6576567597,162.209720112
C30.0000765097,146.700712836 33.4221124407,138.753201437 35.8058920777,134.809294887"/>
      </g>
   </g>
   <g
       id="layer_Third"
       style="fill:#000000;fill-opacity:1;stroke:#000000;stroke-opacity:1;fill-rule:nonzero;stroke-linecap:square;stroke-linejoin:miter;stroke-width:3;stroke-miterlimit:10">
      <rect
          style="fill:#8ECF7D;stroke:#8ECF7D"
          id="67D36A27"
          x="227.12109375"
          y="183.834399602"
          width="104.449036505"
          height="104.449036505"/>
      <g id="CED51057_transform" transform="matrix(0.38059158417,-0.125455093792,0.03982313561,0.389307297172,98.6493146012,176.055949714)">
         <path
             style="fill:#D06647;stroke:#FB9B38"
             id="BED51057"
             d="M86.8863619865,199.155623568 C108.665000865,225.267493762 179.226072642,251.348085794 221.808869574,268.420566915 C223.596704302,263.961285184 225.38453903,259.502003453 227.172373758,255.042721722 C247.459538257,271.803120821 267.746702755,288.563519921 283.037746746,305.32391902
C261.787253662,303.427792357 235.54064007,301.531665695 209.294026478,299.635539032 C211.081861206,295.176257301 212.869695934,290.71697557 214.657530662,286.257693839 C172.07473373,269.185212718 129.491936798,246.940105409 67.9238819365,237.59724029
C73.2663016865,222.088233014 76.6883376175,214.140721615 79.0721172545,210.196815065"/>
      </g>
      <text
          id="40A4E677"
          style="stroke:none"
          font-family="Helvetica"
          font-size="18"
          font-weight="normal"
          font-style="normal">
         <tspan x="240.03671875" y="236.175805852">Service</tspan>
      </text>
      <text
          id="89596777"
          style="fill:#E5E5E5;stroke:none"
          font-family="Helvetica"
          font-size="18"
          font-weight="normal"
          font-style="normal">
         <tspan x="150.7921875" y="245.466430852">Proxy</tspan>
      </text>
   </g>
</svg>
